<?xml version="1.0" encoding="UTF-8" standalone="no"?>
<!-- Created with Inkscape (http://www.inkscape.org/) -->

<svg
   width="88.524292mm"
   height="67.508522mm"
   viewBox="0 0 88.524292 67.508522"
   version="1.1"
   id="svg5"
   xml:space="preserve"
   inkscape:version="1.2.2 (b0a8486541, 2022-12-01)"
   sodipodi:docname="prismatica.svg"
   xmlns:inkscape="http://www.inkscape.org/namespaces/inkscape"
   xmlns:sodipodi="http://sodipodi.sourceforge.net/DTD/sodipodi-0.dtd"
   xmlns="http://www.w3.org/2000/svg"
   xmlns:svg="http://www.w3.org/2000/svg"><sodipodi:namedview
     id="namedview7"
     pagecolor="#ffffff"
     bordercolor="#000000"
     borderopacity="0.25"
     inkscape:showpageshadow="2"
     inkscape:pageopacity="0.0"
     inkscape:pagecheckerboard="0"
     inkscape:deskcolor="#d1d1d1"
     inkscape:document-units="mm"
     showgrid="false"
     inkscape:zoom="1.0607991"
     inkscape:cx="173.45415"
     inkscape:cy="99.453332"
     inkscape:window-width="1854"
     inkscape:window-height="1011"
     inkscape:window-x="1666"
     inkscape:window-y="32"
     inkscape:window-maximized="1"
     inkscape:current-layer="layer1" /><defs
     id="defs2" /><g
     inkscape:label="Layer 1"
     inkscape:groupmode="layer"
     id="layer1"
     transform="translate(-64.432473,-75.681588)"><path
       style="fill:#eb8e35;fill-opacity:1;stroke:none;stroke-width:1.59471;stroke-linecap:round;stroke-linejoin:round;stroke-dasharray:none;stroke-opacity:1;paint-order:normal"
       d="m 119.42093,99.508032 3.68706,-3.88663 7.99728,8.107118 -6.66709,4.72792 z"
       id="path7321"
       sodipodi:nodetypes="ccccc" /><path
       style="fill:#f7d44c;fill-opacity:1;stroke:none;stroke-width:1.80803;stroke-linecap:round;stroke-linejoin:round;stroke-dasharray:none;stroke-opacity:1;paint-order:normal"
       d="m 124.28235,108.23113 5.26363,-5.79753 7.43022,7.04911 -8.09162,6.42246 z"
       id="path7321-3"
       sodipodi:nodetypes="ccccc" /><path
       style="fill:#92d16a;fill-opacity:1;stroke:none;stroke-width:1.96095;stroke-linecap:round;stroke-linejoin:round;stroke-dasharray:none;stroke-opacity:1;paint-order:normal"
       d="m 128.57445,116.09203 6.93488,-7.35772 6.35665,6.625 c 3.4582,2.57456 -5.54393,5.14912 -8.3159,7.72367 z"
       id="path7321-6"
       sodipodi:nodetypes="ccccc" /><path
       style="fill:#41b2c5;fill-opacity:1;stroke:none;stroke-width:1.59471;stroke-linecap:round;stroke-linejoin:round;stroke-dasharray:none;stroke-opacity:1;paint-order:normal"
       d="m 133.59232,122.40322 7.16699,-8.34652 6.3574,6.06552 -8.77346,11.02371 z"
       id="path7321-7"
       sodipodi:nodetypes="ccccc" /><path
       style="fill:#7f52a1;fill-opacity:1;stroke:none;stroke-width:1.59471;stroke-linecap:round;stroke-linejoin:round;stroke-dasharray:none;stroke-opacity:1;paint-order:normal"
       d="m 137.95035,130.49547 8.15389,-11.04841 5.25965,5.73491 -6.74636,16.38031 z"
       id="path7321-5"
       sodipodi:nodetypes="ccccc" /><path
       style="fill:#ef4d4d;fill-opacity:1;stroke:none;stroke-width:2;stroke-linecap:round;stroke-linejoin:round;stroke-dasharray:none;stroke-opacity:1;paint-order:normal"
       d="m 119.35595,99.628808 4.07913,-3.554131 -15.44793,-15.584781 z"
       id="path3830"
       sodipodi:nodetypes="cccc" /><path
       id="path458"
       style="fill:#ebefef;stroke:#444444;stroke-width:2.00031;stroke-linejoin:round;stroke-dasharray:none;stroke-linecap:round"
       inkscape:transform-center-x="-2.6048298e-06"
       inkscape:transform-center-y="-10.932226"
       transform="matrix(1.0005349,0,0,0.95762967,33.622144,57.94561)"
       d="M 110.88561,88.01614 H 71.339699 31.793784 L 51.566741,53.768374 71.339699,19.520607"
       sodipodi:nodetypes="ccccc" /><path
       style="fill:none;stroke:#444444;stroke-width:2;stroke-linejoin:round;stroke-dasharray:none;stroke-opacity:1"
       d="m 105,76.639123 46.65813,49.200187 -7.09106,16.39317"
       id="path1587"
       sodipodi:nodetypes="ccc" /><path
       d="m 105.25117,76.926923 c 13.18903,21.86445 26.37805,43.728907 39.56707,65.593357 M 105.07481,76.926933 c 13.18902,21.86445 26.37804,43.728897 39.56706,65.593347"
       style="fill:#ebefef;stroke:#444444;stroke-width:1.5;stroke-linejoin:round;stroke-dasharray:none;stroke-linecap:round"
       id="path19062" /><path
       style="fill:#afdde9;fill-opacity:1;stroke:none;stroke-width:0.393485;stroke-linecap:round;stroke-linejoin:round;stroke-dasharray:none;stroke-opacity:1;paint-order:normal"
       d="m 99.897006,121.85991 c -3.154759,-1.66315 -4.681375,-4.28657 -4.43959,-7.62922 0.219596,-3.03588 1.565439,-5.04251 4.293911,-6.40217 3.179933,-1.58463 5.958023,-1.20286 8.597143,1.18143 5.31712,4.8037 2.02016,13.53828 -5.0908,13.48702 -1.20092,-0.009 -2.71202,-0.29511 -3.360664,-0.63706 z"
       id="path20714" /><path
       style="fill:#c87137;fill-opacity:1;stroke:none;stroke-width:0.193209;stroke-linecap:round;stroke-linejoin:round;stroke-dasharray:none;stroke-opacity:1;paint-order:normal"
       d="m 117.39089,131.2061 c -4.32879,-4.33079 -5.10192,-5.34625 -5.10192,-5.74299 0,-0.57389 1.47321,-1.46077 2.01661,-1.46077 0.54497,0 10.83879,10.32756 10.83879,10.87501 0,0.57069 -1.28334,1.55798 -1.9091,1.55798 -0.42128,0 -1.41329,-0.79609 -5.84438,-5.22923 z"
       id="path20854"
       sodipodi:nodetypes="ssssss" /><path
       id="path20996"
       style="fill:#cccccc;fill-opacity:1;stroke:none;stroke-width:0.176644;stroke-linecap:round;stroke-linejoin:round;stroke-dasharray:none;stroke-opacity:1;paint-order:normal"
       d="m 102.97586,103.75119 c -1.14478,0.0209 -2.30229,0.15599 -3.374219,0.57899 -2.706405,0.97845 -5.030338,3.00109 -6.310464,5.58549 -1.157827,2.29435 -1.453343,5.00712 -0.806153,7.49515 0.362654,1.47582 1.022956,2.88581 1.998982,4.0566 1.291482,1.57976 2.931504,2.92123 4.861238,3.63205 2.394436,0.88193 5.115506,0.98988 7.516066,0.0695 2.16792,-0.81985 3.99123,-2.38396 5.37496,-4.2199 1.02444,-1.36378 1.6704,-3.00351 1.84834,-4.70003 0.22828,-2.11022 0.0181,-4.32589 -0.95758,-6.23772 -0.8095,-1.5995 -2.0458,-2.95301 -3.43932,-4.06545 -1.44758,-1.13044 -3.18991,-1.92272 -5.02406,-2.1254 -0.56035,-0.0596 -1.12453,-0.0782 -1.68779,-0.0693 z m 0.091,3.09335 c 2.44723,-0.0371 4.8798,1.12611 6.37458,3.06644 0.82577,1.0574 1.3643,2.33171 1.5655,3.65718 0.0131,0.0776 0.0382,0.26501 0.0495,0.38498 0.0177,0.17374 0.0281,0.31344 0.0361,0.50533 0.056,1.39873 -0.28081,2.80752 -0.94911,4.03652 -0.0432,0.0794 -0.13628,0.24479 -0.20555,0.35613 -0.48987,0.80337 -1.12275,1.51886 -1.85944,2.10419 -0.0967,0.0756 -0.26683,0.20606 -0.39745,0.29543 -0.6721,0.46983 -1.41785,0.83333 -2.20085,1.07658 -0.0856,0.0267 -0.28566,0.085 -0.41728,0.11691 -2.01047,0.5228 -4.22223,0.18498 -5.984756,-0.91449 -1.610439,-0.98071 -2.877177,-2.53815 -3.423264,-4.35083 -0.87793,-2.79482 -0.120941,-6.05726 1.97525,-8.12108 1.424678,-1.41963 3.43722,-2.18953 5.43677,-2.21329 z" /><g
       id="g20203"
       transform="matrix(1.1180296,0,0,1.1180296,91.43659,103.0187)"
       style="fill:#4f4f4f;fill-opacity:1;stroke-width:0.250975;stroke-dasharray:none">
  <path
   fill="#828282"
   d="M 10.5,0 C 4.71,0 0,4.71 0,10.5 0,16.29 4.71,21 10.5,21 c 2.725,0 4.702903,-0.552538 6.570903,-2.260538 0.310514,0.256993 0.668195,0.556871 0.992623,0.839792 -0.02943,0.327207 -0.02462,0.04366 -0.02462,0.477509 0,0.638224 0.243763,1.243091 0.700374,1.689979 l 8.427813,8.248349 c 0.381035,0.372921 0.879,0.585 1.413,0.585 0.534,0 1.036,-0.208 1.414,-0.586 0.378,-0.378 0.586,-0.88 0.586,-1.414 0,-0.534 -0.208,-1.036 -0.586,-1.414 l -8.485,-8.485 c -0.634,-0.634 -1.450566,-0.860365 -2.211566,-0.430365 C 18.990191,17.857349 18.697353,17.592758 18.532492,17.304829 20.240492,15.436829 21,13.225 21,10.5 21,4.71 16.29,0 10.5,0 Z m 10.302091,19.388091 8.485,8.485 c 0.189,0.189 0.293,0.44 0.293,0.707 0,0.267 -0.104,0.518 -0.293,0.707 -0.379,0.377 -1.035,0.377 -1.414,0 l -8.485,-8.485 c -0.188,-0.189 -0.293,-0.44 -0.293,-0.707 0,-0.267 0.104,-0.518 0.293,-0.707 0.189,-0.188 0.44,-0.293 0.707,-0.293 0.267,0 0.517,0.104 0.707,0.293 z M 10.5,20 C 5.262,20 1,15.738 1,10.5 1,5.262 5.262,1 10.5,1 15.738,1 20,5.262 20,10.5 20,15.738 15.738,20 10.5,20 Z"
   id="path20199"
   style="fill:#4f4f4f;fill-opacity:1;stroke-width:0.250975;stroke-dasharray:none"
   sodipodi:nodetypes="sssccssssssssccsscsscccscscsssss" />
  <path
   fill="#828282"
   d="M 10.5,3 C 6.364,3 3,6.364 3,10.5 3,14.636 6.364,18 10.5,18 14.636,18 18,14.636 18,10.5 18,6.364 14.636,3 10.5,3 Z m 0,14 C 6.916,17 4,14.084 4,10.5 4,6.916 6.916,4 10.5,4 14.084,4 17,6.916 17,10.5 17,14.084 14.084,17 10.5,17 Z"
   id="path20201"
   style="fill:#4f4f4f;fill-opacity:1;stroke-width:0.250975;stroke-dasharray:none" />
</g></g></svg>
