<?xml version="1.0" encoding="UTF-8" standalone="no"?>
<!-- Created with Inkscape (http://www.inkscape.org/) -->

<svg
   width="37.48008mm"
   height="52.720245mm"
   viewBox="0 0 37.48008 52.720245"
   version="1.1"
   id="svg5"
   xml:space="preserve"
   inkscape:version="1.2.2 (b0a8486541, 2022-12-01)"
   sodipodi:docname="prismatica_monogram.svg"
   xmlns:inkscape="http://www.inkscape.org/namespaces/inkscape"
   xmlns:sodipodi="http://sodipodi.sourceforge.net/DTD/sodipodi-0.dtd"
   xmlns="http://www.w3.org/2000/svg"
   xmlns:svg="http://www.w3.org/2000/svg"><sodipodi:namedview
     id="namedview7"
     pagecolor="#ffffff"
     bordercolor="#000000"
     borderopacity="0.25"
     inkscape:showpageshadow="2"
     inkscape:pageopacity="0.0"
     inkscape:pagecheckerboard="0"
     inkscape:deskcolor="#d1d1d1"
     inkscape:document-units="mm"
     showgrid="false"
     inkscape:zoom="0.7500982"
     inkscape:cx="194.64118"
     inkscape:cy="-53.99293"
     inkscape:window-width="1854"
     inkscape:window-height="1011"
     inkscape:window-x="1666"
     inkscape:window-y="32"
     inkscape:window-maximized="1"
     inkscape:current-layer="layer1" /><defs
     id="defs2" /><g
     inkscape:label="Layer 1"
     inkscape:groupmode="layer"
     id="layer1"
     transform="translate(-82.81144,-68.223455)"><path
       style="fill:#667d90;fill-opacity:1;stroke:none;stroke-width:2;stroke-linecap:round;stroke-linejoin:round"
       d="M 83.035634,120.77273 82.81144,68.247248 95.99819,91.631883 Z"
       id="path396"
       sodipodi:nodetypes="cccc" /><path
       style="fill:#000000;fill-opacity:1;stroke:none;stroke-width:2;stroke-linecap:round;stroke-linejoin:round"
       d="M 83.035634,120.77273 96.469696,120.9437 96.363591,92.728078 Z"
       id="path4081" /><path
       style="fill:#9db6c7;fill-opacity:1;stroke:none;stroke-width:2;stroke-linecap:round;stroke-linejoin:round"
       d="M 97.192239,88.823269 C 96.555172,88.616963 82.81144,68.247248 82.81144,68.247248 l 14.012336,-0.0021 z"
       id="path4299"
       sodipodi:nodetypes="cccc" /><path
       style="fill:#8184bf;fill-opacity:1;stroke:none;stroke-width:2;stroke-linecap:round;stroke-linejoin:round"
       d="m 96.823776,68.245131 c 0,0 4.384644,-0.09073 6.564974,0.09906 0.92798,0.08078 2.75942,0.441251 2.75942,0.441251 l -8.285469,20.068307 -0.670462,-0.03048 z"
       id="path9262"
       sodipodi:nodetypes="cacccc" /><path
       style="fill:#b54f7b;fill-opacity:1;stroke:none;stroke-width:2;stroke-linecap:round;stroke-linejoin:round"
       d="M 97.862701,88.853749 106.1267,68.779978 c 2.22098,0.61093 4.27934,1.589946 6.35296,3.015302 L 98.556134,89.035163 Z"
       id="path9360"
       sodipodi:nodetypes="ccccc" /><path
       style="fill:#ea261c;fill-opacity:1;stroke:none;stroke-width:2;stroke-linecap:round;stroke-linejoin:round"
       d="m 98.556134,89.035163 0.689686,0.410298 17.18327,-14.234307 c -1.11582,-1.242209 -2.61068,-2.495456 -3.94943,-3.415874 z"
       id="path9362"
       sodipodi:nodetypes="ccccc" /><path
       style="fill:#fd8f02;fill-opacity:1;stroke:none;stroke-width:2;stroke-linecap:round;stroke-linejoin:round"
       d="M 99.746382,90.101958 99.24582,89.445461 116.42909,75.211154 c 1.49889,1.823733 2.31461,3.599632 3.01016,5.903513 z"
       id="path9364"
       sodipodi:nodetypes="ccccc" /><path
       style="fill:#fdd304;fill-opacity:1;stroke:none;stroke-width:2;stroke-linecap:round;stroke-linejoin:round"
       d="m 99.746382,90.101958 c 0.264548,-0.278209 21.284018,-9.795994 19.692868,-8.987291 0.47505,2.139579 0.84604,3.169991 0.85227,6.521158 l -20.315168,3.073052 z"
       id="path9366"
       sodipodi:nodetypes="ccccc" /><path
       style="fill:#55b629;fill-opacity:1;stroke:none;stroke-width:2;stroke-linecap:round;stroke-linejoin:round"
       d="m 99.982041,91.269032 0.01867,-0.571825 20.29081,-3.061382 c -0.17764,2.134392 -0.38871,4.23829 -1.37953,6.158085 z"
       id="path9368"
       sodipodi:nodetypes="ccccc" /><path
       style="fill:#007bd2;fill-opacity:1;stroke:none;stroke-width:2;stroke-linecap:round;stroke-linejoin:round"
       d="m 99.982041,91.269032 18.929949,2.524878 c -1.05401,2.043716 -1.92116,3.753313 -4.08915,5.839267 l -15.094935,-7.71957 z"
       id="path9370"
       sodipodi:nodetypes="ccccc" /><path
       style="fill:#1b2ca0;fill-opacity:1;stroke:none;stroke-width:2;stroke-linecap:round;stroke-linejoin:round"
       d="m 99.727905,91.913607 c 0.476525,0 15.094935,7.71957 15.094935,7.71957 -1.16765,0.933973 -2.12197,1.863173 -4.2375,2.660793 L 99.493011,92.36043 Z"
       id="path9372"
       sodipodi:nodetypes="ccccc" /><path
       style="fill:#522d9d;fill-opacity:1;stroke:none;stroke-width:2;stroke-linecap:round;stroke-linejoin:round"
       d="m 110.58534,102.29397 c -1.66874,0.55548 -3.38927,1.03569 -5.12876,1.19477 l -6.137919,-10.87714 0.17435,-0.25117 z"
       id="path9374"
       sodipodi:nodetypes="ccccc" /></g></svg>
