<?xml version="1.0" encoding="UTF-8" standalone="no"?>
<!-- Created with Inkscape (http://www.inkscape.org/) -->

<svg
   width="82.807205mm"
   height="67.807228mm"
   viewBox="0 0 82.807206 67.807229"
   version="1.1"
   id="svg5"
   xml:space="preserve"
   inkscape:version="1.2.2 (b0a8486541, 2022-12-01)"
   sodipodi:docname="prismatica_icon_backup_3.svg"
   xmlns:inkscape="http://www.inkscape.org/namespaces/inkscape"
   xmlns:sodipodi="http://sodipodi.sourceforge.net/DTD/sodipodi-0.dtd"
   xmlns="http://www.w3.org/2000/svg"
   xmlns:svg="http://www.w3.org/2000/svg"><sodipodi:namedview
     id="namedview7"
     pagecolor="#ffffff"
     bordercolor="#000000"
     borderopacity="0.25"
     inkscape:showpageshadow="2"
     inkscape:pageopacity="0.0"
     inkscape:pagecheckerboard="0"
     inkscape:deskcolor="#d1d1d1"
     inkscape:document-units="mm"
     showgrid="false"
     inkscape:zoom="1.0607991"
     inkscape:cx="165.91266"
     inkscape:cy="255.93913"
     inkscape:window-width="1452"
     inkscape:window-height="749"
     inkscape:window-x="1797"
     inkscape:window-y="246"
     inkscape:window-maximized="0"
     inkscape:current-layer="g558" /><defs
     id="defs2" /><g
     inkscape:label="Layer 1"
     inkscape:groupmode="layer"
     id="layer1"
     transform="translate(-65.650469,-75.855652)"><g
       id="g558"
       transform="matrix(0.95177025,0,0,1.0006771,3.1298716,-0.07412839)"><path
         style="fill:#ef4d4d;fill-opacity:1;stroke:none;stroke-width:2;stroke-linecap:round;stroke-linejoin:round;stroke-dasharray:none;stroke-opacity:1;paint-order:normal"
         d="m 119.35595,99.628808 4.27672,-4.82051 -16.02359,-16.263094 z"
         id="path3830"
         sodipodi:nodetypes="cccc" /><path
         style="fill:#eb8e35;fill-opacity:1;stroke:none;stroke-width:1.59471;stroke-linecap:round;stroke-linejoin:round;stroke-dasharray:none;stroke-opacity:1;paint-order:normal"
         d="m 119.35302,98.713406 3.75173,-4.099699 7.93261,8.320183 -6.66709,4.72792 z"
         id="path7321"
         sodipodi:nodetypes="ccccc" /><path
         style="fill:#f7d44c;fill-opacity:1;stroke:none;stroke-width:1.80803;stroke-linecap:round;stroke-linejoin:round;stroke-dasharray:none;stroke-opacity:1;paint-order:normal"
         d="m 123.57286,107.45967 5.48874,-5.61687 7.43022,7.04911 -6.86331,7.79613 z"
         id="path7321-3"
         sodipodi:nodetypes="ccccc" /><path
         style="fill:#92d16a;fill-opacity:1;stroke:none;stroke-width:1.96095;stroke-linecap:round;stroke-linejoin:round;stroke-dasharray:none;stroke-opacity:1;paint-order:normal"
         d="m 127.98276,115.52923 6.71214,-8.19263 6.57939,7.45991 c 3.4582,2.57456 -4.5986,6.12077 -7.37057,8.69532 z"
         id="path7321-6"
         sodipodi:nodetypes="ccccc" /><path
         style="fill:#41b2c5;fill-opacity:1;stroke:none;stroke-width:1.59471;stroke-linecap:round;stroke-linejoin:round;stroke-dasharray:none;stroke-opacity:1;paint-order:normal"
         d="m 133.58439,123.18128 7.1669,-9.4957 6.36542,6.43664 -8.76014,12.80613 z"
         id="path7321-7"
         sodipodi:nodetypes="ccccc" /><path
         style="fill:#7f52a1;fill-opacity:1;stroke:none;stroke-width:1.59471;stroke-linecap:round;stroke-linejoin:round;stroke-dasharray:none;stroke-opacity:1;paint-order:normal"
         d="m 138.03958,132.86352 8.64906,-13.29267 5.18164,8.24186 -7.25275,13.74957 z"
         id="path7321-5"
         sodipodi:nodetypes="ccccc" /><path
         id="path458"
         style="fill:#ebefef;stroke:#7a7a7a;stroke-width:2.00031;stroke-linecap:round;stroke-linejoin:round;stroke-dasharray:none;stroke-opacity:1"
         inkscape:transform-center-x="-2.6048298e-06"
         inkscape:transform-center-y="-10.932226"
         transform="matrix(1.0005349,0,0,0.95762967,33.622144,57.94561)"
         d="m 110.77512,87.033094 c -0.42786,0.651426 -2.57264,1.370642 -3.11742,1.375794 -25.000946,0.236441 -46.058663,-0.157215 -72.170741,-0.07868 -1.043838,-0.244711 -3.29529,-2.451682 -2.114595,-4.897374 0,0 23.712695,-44.191655 32.845987,-58.92547 0.949108,-1.531099 2.170525,-4.602107 4.316914,-4.776656 1.448539,-0.117798 3.402004,2.710053 3.402004,2.710053"
         sodipodi:nodetypes="csccsac" /><path
         style="fill:none;stroke:#757575;stroke-width:2;stroke-linecap:round;stroke-linejoin:round;stroke-dasharray:none;stroke-opacity:1"
         d="m 105.03443,76.901029 c 0,0 1.74667,-0.120381 3.28478,1.292958 2.65763,2.119514 42.58418,46.305523 42.58418,46.305523 0.96906,1.04463 0.89493,3.0476 0.56703,4.62427 -1.24943,6.00771 -6.8527,11.95971 -6.8527,11.95971"
         id="path1587"
         sodipodi:nodetypes="ccssc" /><path
         d="m 107.23513,79.369343 c 13.18903,21.864447 23.2345,39.889747 36.42352,61.754197"
         style="fill:#ebefef;stroke:#7f7f7f;stroke-width:1.5;stroke-linecap:round;stroke-linejoin:round;stroke-dasharray:none;stroke-opacity:1"
         id="path19062"
         sodipodi:nodetypes="cc" /></g><g
       id="g547"
       transform="translate(-2.2732177,0.32904626)"><g
         id="g20203"
         transform="matrix(1.1180296,0,0,1.1180296,35.102963,88.942775)"
         style="fill:#4f4f4f;fill-opacity:1;stroke-width:0.250975;stroke-dasharray:none">
  <g
   id="g1286"
   transform="translate(2.3665145,2.8398174)"><path
     style="fill:#ffffff;stroke:none;stroke-width:3.66198;stroke-linecap:round;stroke-linejoin:round;stroke-dasharray:none;stroke-opacity:1"
     d="M 47.338647,26.117252 C 38.700454,23.307736 35.81758,11.949891 42.092799,5.4498359 c 2.608383,-2.7018371 5.25989,-3.8481714 8.931537,-3.8613994 3.545227,-0.012773 5.811247,0.8587156 8.439734,3.2458337 8.197894,7.4450978 3.594977,20.9134178 -7.447319,21.7911508 -1.430998,0.113748 -3.435388,-0.103985 -4.678104,-0.508169 z"
     id="path1282" /><path
     id="path20199"
     style="fill:#4f4f4f;fill-opacity:1;stroke-width:9.74505;stroke-dasharray:none"
     d="m 50.439309,-0.3436004 c -6.001243,0.215503 -11.540585,4.610311 -13.136843,10.3956344 -1.671942,5.484945 0.361267,11.835614 4.905063,15.332699 3.864113,3.151912 9.346067,3.888022 14.037222,2.401481 1.310666,-0.441389 2.519636,-1.158982 3.574011,-2.049794 0.707715,0.307289 0.647631,0.933577 0.702341,1.578442 0.324386,1.926469 2.218817,2.931627 3.400968,4.301811 3.080882,2.964472 6.067537,6.038022 9.205235,8.936713 1.808758,1.344079 4.69214,0.14439 5.02379,-2.081469 0.34462,-1.50014 -0.63284,-2.846777 -1.734229,-3.74612 -3.5881,-3.553531 -7.111931,-7.176986 -10.739159,-10.687959 -0.765799,-0.61748 -1.837404,-0.844987 -2.767582,-0.53707 -0.706914,-0.409056 -0.0022,-0.821699 0.270619,-1.270657 2.81239,-3.939454 3.113541,-9.37311 1.278919,-13.7827218 -2.268953,-5.4901596 -8.081211,-9.1610566 -14.020355,-8.7909896 z m 0.727229,2.541447 c 4.073532,-0.06648 8.126752,2.299958 10.145226,5.7150421 2.316035,3.6666653 2.314799,8.8404703 -0.141596,12.5487073 -1.633416,2.576597 -4.296093,4.462053 -7.18179,5.1477 -3.136346,0.78083 -6.577891,0.191756 -9.210376,-1.528922 -4.37368,-2.69899 -6.53356,-8.418187 -5.010432,-13.33236 1.221304,-4.5370678 5.678375,-8.2701144 10.564189,-8.5161974 0.277463,-0.02729 0.556389,-0.02504 0.834779,-0.03397 z M 63.920023,26.021658 c 1.025152,0.599324 1.728226,1.682199 2.633681,2.45894 2.987147,3.002668 6.006769,5.975792 8.973714,8.996841 0.534375,0.760882 -0.728969,1.504626 -1.20572,0.736984 -3.6991,-3.716328 -7.434273,-7.399883 -11.110915,-11.136613 -0.338557,-0.488538 0.125636,-1.187206 0.70924,-1.056152 z" /></g>
  
</g></g></g></svg>
